# xmcd
#
# Track frame offsets: 
#        150
#        36987
#        75975
#        105455
#        150585
#        171200
#        191692
#        203317
#        212362
#        228517
#        242272
#
# Disc length: 3672 seconds
#
# Revision: 1
# Processed by: cddbd v1.5.2PL0 Copyright (c) Steve Scherf et al.
# Submitted via: ExactAudioCopy v1.0b6
#
DISCID=770e560b
DTITLE=Various Artist - ALBERT: Riverrun - To Wake The Dead (1988)
DYEAR=1988
DGENRE=Classical
TTITLE0=Mstislav Rostropovich: National Symphony Orchestra - ALBERT: S
TTITLE0=ymphony RiverRun - Movement I - Rain Music
TTITLE1=Mstislav Rostropovich: National Symphony Orchestra - ALBERT: S
TTITLE1=ymphony RiverRun - Movement II - Leafy Speafing
TTITLE2=Mstislav Rostropovich: National Symphony Orchestra - ALBERT: S
TTITLE2=ymphony RiverRun - Movement III - Beside the Rivering Waters
TTITLE3=Mstislav Rostropovich: National Symphony Orchestra - ALBERT: S
TTITLE3=ymphony RiverRun - Movement IV - Rivers End
TTITLE4=Lucy Shelton - Christopher Kendall: 20th Century Consort - ALBE
TTITLE4=RT: To Wake the Dead - 1. How It Ends
TTITLE5=Lucy Shelton - Christopher Kendall: 20th Century Consort - ALBE
TTITLE5=RT: To Wake the Dead - 2. Riverrun (ballad of Perse O'Reilly)
TTITLE6=Lucy Shelton - Christopher Kendall: 20th Century Consort - ALBE
TTITLE6=RT: To Wake the Dead - 3. Pray your prayers
TTITLE7=Lucy Shelton - Christopher Kendall: 20th Century Consort - ALBE
TTITLE7=RT: To Wake the Dead - 4. Instruments
TTITLE8=Lucy Shelton - Christopher Kendall: 20th Century Consort - ALBE
TTITLE8=RT: To Wake the Dead - 5. Forget, Remember
TTITLE9=Lucy Shelton - Christopher Kendall: 20th Century Consort - ALBE
TTITLE9=RT: To Wake the Dead - 7. Sod's brood, Mr. Finn
TTITLE10=Lucy Shelton - Christopher Kendall: 20th Century Consort - ALB
TTITLE10=ERT: To Wake the Dead - 8. Passing Out
EXTD=YEAR: 1988 ID3G: 32
EXTT0=
EXTT1=
EXTT2=
EXTT3=
EXTT4=
EXTT5=
EXTT6=
EXTT7=
EXTT8=
EXTT9=
EXTT10=
PLAYORDER=
